<svg width="47" height="47" viewBox="0 0 47 47" fill="none" xmlns="http://www.w3.org/2000/svg">
<g clip-path="url(#clip0)">
<path d="M14.9936 36.5571C12.2837 36.5571 10.0869 38.754 10.0869 41.4638C10.0869 44.1738 12.2838 46.3706 14.9936 46.3706C17.7036 46.3706 19.9003 44.1737 19.9003 41.4638C19.9005 38.754 17.7036 36.5571 14.9936 36.5571ZM14.9936 44.1899C13.4881 44.1899 12.2677 42.9695 12.2677 41.4639C12.2677 39.9584 13.4881 38.738 14.9936 38.738C16.4991 38.738 17.7196 39.9584 17.7196 41.4639C17.7197 42.9695 16.4991 44.1899 14.9936 44.1899Z" fill="white"/>
<path d="M35.7095 36.5571C32.9995 36.5571 30.8027 38.754 30.8027 41.4638C30.8027 44.1738 32.9996 46.3706 35.7095 46.3706C38.4193 46.3706 40.6162 44.1737 40.6162 41.4638C40.6162 38.754 38.4194 36.5571 35.7095 36.5571ZM35.7095 44.1899C34.2039 44.1899 32.9835 42.9695 32.9835 41.4639C32.9835 39.9584 34.2039 38.738 35.7095 38.738C37.215 38.738 38.4354 39.9584 38.4354 41.4639C38.4355 42.9695 37.215 44.1899 35.7095 44.1899Z" fill="white"/>
<path d="M46.7777 7.93363C46.5507 7.68559 46.24 7.53031 45.9054 7.49744L10.4133 7.00676L9.43191 4.00816C8.74057 2.00363 6.86345 0.650366 4.74319 0.62793H1.09039C0.488167 0.62793 0 1.1161 0 1.71832C0 2.32055 0.488167 2.80872 1.09039 2.80872H4.74319C5.92876 2.83491 6.97271 3.59617 7.36018 4.71693L14.2842 25.5979L13.739 26.8518C13.1309 28.4198 13.3136 30.1847 14.2297 31.595C15.137 32.9802 16.6635 33.8351 18.3187 33.8849H39.5268C40.129 33.8849 40.6172 33.3967 40.6172 32.7945C40.6172 32.1922 40.129 31.7041 39.5268 31.7041H18.3186C17.3839 31.6807 16.5235 31.189 16.0287 30.3956C15.5395 29.6119 15.439 28.6464 15.7562 27.7786L16.1924 26.7973L39.1451 24.3984C41.6663 24.1207 43.7402 22.287 44.3245 19.8187L46.9415 8.8603C47.0594 8.54473 46.9968 8.18982 46.7777 7.93363ZM42.1982 19.3281C41.8442 20.917 40.4952 22.089 38.8725 22.2177L16.1924 24.562L11.122 9.18755L44.5425 9.67822L42.1982 19.3281Z" fill="white"/>
</g>
<defs>
<clipPath id="clip0">
<rect width="47" height="47" fill="white"/>
</clipPath>
</defs>
</svg>
